<svg width="14" height="12" viewBox="0 0 14 12" fill="none" xmlns="http://www.w3.org/2000/svg">
<path d="M3 10C3 9.17187 2.32813 8.5 1.5 8.5C0.671875 8.5 0 9.17187 0 10C0 10.8281 0.671875 11.5 1.5 11.5C2.32813 11.5 3 10.8281 3 10ZM3 6C3 5.17187 2.32813 4.5 1.5 4.5C0.671875 4.5 0 5.17187 0 6C0 6.82812 0.671875 7.5 1.5 7.5C2.32813 7.5 3 6.82812 3 6ZM14 9.25C14 9.11719 13.8828 9 13.75 9H4.25C4.11719 9 4 9.11719 4 9.25V10.75C4 10.8828 4.11719 11 4.25 11H13.75C13.8828 11 14 10.8828 14 10.75V9.25ZM3 2C3 1.17187 2.32813 0.499999 1.5 0.499999C0.671875 0.499999 0 1.17187 0 2C0 2.82812 0.671875 3.5 1.5 3.5C2.32813 3.5 3 2.82812 3 2ZM14 5.25C14 5.11719 13.8828 5 13.75 5H4.25C4.11719 5 4 5.11719 4 5.25V6.75C4 6.88281 4.11719 7 4.25 7H13.75C13.8828 7 14 6.88281 14 6.75V5.25ZM14 1.25C14 1.11719 13.8828 1 13.75 1H4.25C4.11719 1 4 1.11719 4 1.25V2.75C4 2.88281 4.11719 3 4.25 3H13.75C13.8828 3 14 2.88281 14 2.75V1.25Z" fill="#4C82EA"/>
</svg>
