<svg width="24" height="24" viewBox="0 0 24 24" fill="none" xmlns="http://www.w3.org/2000/svg">
<path d="M8.4375 6.1875C9.3125 5.3125 10.375 4.875 11.625 4.875C12.875 4.875 13.9375 5.3125 14.8125 6.1875C15.6875 7.0625 16.125 8.125 16.125 9.375C16.125 10.625 15.6875 11.6875 14.8125 12.5625C13.9375 13.4375 12.875 13.875 11.625 13.875C10.375 13.875 9.3125 13.4375 8.4375 12.5625C7.5625 11.6875 7.125 10.625 7.125 9.375C7.125 8.125 7.5625 7.0625 8.4375 6.1875ZM10.0312 10.9688C10.4688 11.4062 11 11.625 11.625 11.625C12.25 11.625 12.7812 11.4062 13.2188 10.9688C13.6562 10.5312 13.875 10 13.875 9.375C13.875 8.75 13.6562 8.21875 13.2188 7.78125C12.7812 7.34375 12.25 7.125 11.625 7.125C11 7.125 10.4688 7.34375 10.0312 7.78125C9.59375 8.21875 9.375 8.75 9.375 9.375C9.375 10 9.59375 10.5312 10.0312 10.9688ZM3.375 3.79688C5.65625 1.51562 8.40625 0.375 11.625 0.375C14.8438 0.375 17.5781 1.51562 19.8281 3.79688C22.1094 6.04688 23.25 8.78125 23.25 12C23.25 15.2188 22.1094 17.9688 19.8281 20.25C17.5781 22.5 14.8438 23.625 11.625 23.625C8.40625 23.625 5.65625 22.5 3.375 20.25C1.125 17.9688 0 15.2188 0 12C0 8.78125 1.125 6.04688 3.375 3.79688ZM5.53125 19.125C7.28125 20.625 9.3125 21.375 11.625 21.375C13.9375 21.375 15.9688 20.625 17.7188 19.125C16.9688 17.9375 15.875 17.3125 14.4375 17.25C13.5 17.5625 12.5625 17.7188 11.625 17.7188C10.7188 17.7188 9.78125 17.5625 8.8125 17.25C7.40625 17.2812 6.3125 17.9062 5.53125 19.125ZM19.2656 17.4375C20.4219 15.8125 21 14 21 12C21 9.40625 20.0781 7.20312 18.2344 5.39062C16.4219 3.54688 14.2188 2.625 11.625 2.625C9.03125 2.625 6.8125 3.54688 4.96875 5.39062C3.15625 7.20312 2.25 9.40625 2.25 12C2.25 14 2.82812 15.8125 3.98438 17.4375C5.26562 15.8125 6.90625 15 8.90625 15C9 15 9.32812 15.0781 9.89062 15.2344C10.4844 15.3906 11.0625 15.4688 11.625 15.4688C12.1875 15.4688 12.75 15.3906 13.3125 15.2344C13.9062 15.0781 14.25 15 14.3438 15C16.3438 15 17.9844 15.8125 19.2656 17.4375Z" fill="#4C82EA"/>
</svg>
